# xmcd CD database file
#
# Track frame offsets:
#	150
#	12183
#	22707
#	32295
#	55991
#	70515
#	82840
#	100517
#	111596
#	130152
#
# Disc length: 1883 seconds
#
# Revision: 0
# Processed by: cddbd v1.5.2PL0 Copyright (c) Steve Scherf et al.
# Submitted via: CDex 1.51
#
DISCID=6707590a
DTITLE=Nashville Rebels - Country learns to Rock
DYEAR=2005
DGENRE=Country
TTITLE0=The bottle let me down
TTITLE1=Seven nights to rock
TTITLE2=Whiskey river
TTITLE3=The eagle always flies alone
TTITLE4=Giorgia on a fast train
TTITLE5=They call me a playboy
TTITLE6=When a man loves a woman
TTITLE7=Better call a preacher
TTITLE8=Grass string ranch
TTITLE9=Gone
EXTD=YEAR: 2005
EXTT0=
EXTT1=
EXTT2=
EXTT3=
EXTT4=
EXTT5=
EXTT6=
EXTT7=
EXTT8=
EXTT9=
PLAYORDER=
